<svg width="30" height="30" viewBox="0 0 30 30" fill="currentColor" xmlns="http://www.w3.org/2000/svg">
<path d="M9.375 6.5625V2.8125C9.375 2.56386 9.47377 2.3254 9.64959 2.14959C9.8254 1.97377 10.0639 1.875 10.3125 1.875C10.5611 1.875 10.7996 1.97377 10.9754 2.14959C11.1512 2.3254 11.25 2.56386 11.25 2.8125V6.5625C11.25 6.81114 11.1512 7.0496 10.9754 7.22541C10.7996 7.40123 10.5611 7.5 10.3125 7.5C10.0639 7.5 9.8254 7.40123 9.64959 7.22541C9.47377 7.0496 9.375 6.81114 9.375 6.5625ZM14.0625 7.5C14.3111 7.5 14.5496 7.40123 14.7254 7.22541C14.9012 7.0496 15 6.81114 15 6.5625V2.8125C15 2.56386 14.9012 2.3254 14.7254 2.14959C14.5496 1.97377 14.3111 1.875 14.0625 1.875C13.8139 1.875 13.5754 1.97377 13.3996 2.14959C13.2238 2.3254 13.125 2.56386 13.125 2.8125V6.5625C13.125 6.81114 13.2238 7.0496 13.3996 7.22541C13.5754 7.40123 13.8139 7.5 14.0625 7.5ZM17.8125 7.5C18.0611 7.5 18.2996 7.40123 18.4754 7.22541C18.6512 7.0496 18.75 6.81114 18.75 6.5625V2.8125C18.75 2.56386 18.6512 2.3254 18.4754 2.14959C18.2996 1.97377 18.0611 1.875 17.8125 1.875C17.5639 1.875 17.3254 1.97377 17.1496 2.14959C16.9738 2.3254 16.875 2.56386 16.875 2.8125V6.5625C16.875 6.81114 16.9738 7.0496 17.1496 7.22541C17.3254 7.40123 17.5639 7.5 17.8125 7.5ZM29.0625 14.0625V15C29.0618 16.192 28.6071 17.3391 27.7907 18.2077C26.9743 19.0763 25.8577 19.6013 24.668 19.6758C24.0222 21.4818 22.9345 23.0974 21.5039 24.375H24.375C24.6236 24.375 24.8621 24.4738 25.0379 24.6496C25.2137 24.8254 25.3125 25.0639 25.3125 25.3125C25.3125 25.5611 25.2137 25.7996 25.0379 25.9754C24.8621 26.1512 24.6236 26.25 24.375 26.25H3.75C3.50136 26.25 3.2629 26.1512 3.08709 25.9754C2.91127 25.7996 2.8125 25.5611 2.8125 25.3125C2.8125 25.0639 2.91127 24.8254 3.08709 24.6496C3.2629 24.4738 3.50136 24.375 3.75 24.375H6.62109C5.4264 23.3173 4.46931 22.0186 3.81285 20.5643C3.15639 19.11 2.81546 17.5331 2.8125 15.9375V10.3125C2.8125 10.0639 2.91127 9.8254 3.08709 9.64959C3.2629 9.47377 3.50136 9.375 3.75 9.375H24.375C25.6182 9.375 26.8105 9.86886 27.6896 10.7479C28.5686 11.627 29.0625 12.8193 29.0625 14.0625ZM23.4375 11.25H4.6875V15.9375C4.69131 17.6974 5.18858 19.421 6.12282 20.9125C7.05706 22.4039 8.39084 23.6035 9.97266 24.375H18.1523C19.334 23.7975 20.3815 22.9788 21.2272 21.9716C22.0729 20.9644 22.6981 19.7911 23.0625 18.5273C23.0756 18.506 23.0836 18.4819 23.0859 18.457C23.3215 17.638 23.4399 16.7897 23.4375 15.9375V11.25ZM27.1875 14.0625C27.1868 13.4814 27.0062 12.9148 26.6705 12.4406C26.3347 11.9664 25.8603 11.6077 25.3125 11.4141V15.9375C25.3132 16.5263 25.2662 17.1141 25.1719 17.6953C25.7536 17.5235 26.2641 17.1682 26.6273 16.6824C26.9906 16.1967 27.1871 15.6065 27.1875 15V14.0625Z" fill="#FCF2D9"/>
</svg>
