<svg width="30" height="30" viewBox="0 0 30 30" fill="none" xmlns="http://www.w3.org/2000/svg">
<path d="M7.5 8.75H17.5V11.25H7.5V8.75ZM7.5 13.75H17.5V16.25H7.5V13.75ZM13.75 18.75H17.5V21.25H13.75V18.75Z" fill="#FCF2D9"/>
<path d="M26.25 13.75H22.5V5C22.5 4.66848 22.3683 4.35054 22.1339 4.11612C21.8995 3.8817 21.5815 3.75 21.25 3.75H3.75C3.41848 3.75 3.10054 3.8817 2.86612 4.11612C2.6317 4.35054 2.5 4.66848 2.5 5V22.5C2.5 24.5675 4.1825 26.25 6.25 26.25H23.75C25.8175 26.25 27.5 24.5675 27.5 22.5V15C27.5 14.6685 27.3683 14.3505 27.1339 14.1161C26.8995 13.8817 26.5815 13.75 26.25 13.75ZM6.25 23.75C5.91848 23.75 5.60054 23.6183 5.36612 23.3839C5.1317 23.1495 5 22.8315 5 22.5V6.25H20V22.5C20 22.9387 20.0763 23.36 20.2137 23.75H6.25ZM25 22.5C25 22.8315 24.8683 23.1495 24.6339 23.3839C24.3995 23.6183 24.0815 23.75 23.75 23.75C23.4185 23.75 23.1005 23.6183 22.8661 23.3839C22.6317 23.1495 22.5 22.8315 22.5 22.5V16.25H25V22.5Z" fill="#FCF2D9"/>
</svg>
