<svg width="30" height="30" viewBox="0 0 30 30" fill="currentColor" xmlns="http://www.w3.org/2000/svg">
<path d="M27.7295 14.7949L15.6621 2.7363C15.5752 2.64925 15.472 2.58018 15.3584 2.53305C15.2448 2.48593 15.123 2.46167 15 2.46167C14.877 2.46167 14.7552 2.48593 14.6416 2.53305C14.528 2.58018 14.4248 2.64925 14.3379 2.7363L2.27051 14.7949C1.91895 15.1465 1.71973 15.624 1.71973 16.122C1.71973 17.1562 2.56055 17.997 3.59473 17.997H4.86621V26.6015C4.86621 27.1201 5.28515 27.539 5.80371 27.539H13.125V20.9765H16.4062V27.539H24.1963C24.7148 27.539 25.1338 27.1201 25.1338 26.6015V17.997H26.4053C26.9033 17.997 27.3808 17.8008 27.7324 17.4463C28.4619 16.7138 28.4619 15.5273" fill="currentColor"/>
</svg>
